<mxfile host="app.diagrams.net" modified="2023-11-01T22:22:08.624Z" agent="Mozilla/5.0 (Windows NT 10.0; Win64; x64) AppleWebKit/537.36 (KHTML, like Gecko) Chrome/116.0.0.0 Safari/537.36 OPR/102.0.0.0" etag="vYy8lip1w_lwktHEuBez" version="22.0.8" type="device">
  <diagram id="R2lEEEUBdFMjLlhIrx00" name="Page-1">
    <mxGraphModel dx="1936" dy="512" grid="1" gridSize="10" guides="1" tooltips="1" connect="1" arrows="1" fold="1" page="1" pageScale="1" pageWidth="850" pageHeight="1100" math="0" shadow="0" extFonts="Permanent Marker^https://fonts.googleapis.com/css?family=Permanent+Marker">
      <root>
        <mxCell id="0" />
        <mxCell id="1" parent="0" />
        <mxCell id="ShOynKs_U-5MbjvXCMQn-1" value="User" style="rounded=0;whiteSpace=wrap;html=1;" parent="1" vertex="1">
          <mxGeometry y="95" width="100" height="50" as="geometry" />
        </mxCell>
        <mxCell id="ShOynKs_U-5MbjvXCMQn-2" value="Password" style="ellipse;whiteSpace=wrap;html=1;" parent="1" vertex="1">
          <mxGeometry x="-50" y="175" width="80" height="50" as="geometry" />
        </mxCell>
        <mxCell id="ShOynKs_U-5MbjvXCMQn-3" value="Username" style="ellipse;whiteSpace=wrap;html=1;" parent="1" vertex="1">
          <mxGeometry x="-10" y="35" width="80" height="50" as="geometry" />
        </mxCell>
        <mxCell id="ShOynKs_U-5MbjvXCMQn-4" value="pic" style="ellipse;whiteSpace=wrap;html=1;" parent="1" vertex="1">
          <mxGeometry x="60" y="165" width="90" height="50" as="geometry" />
        </mxCell>
        <mxCell id="ShOynKs_U-5MbjvXCMQn-6" value="" style="endArrow=none;html=1;rounded=0;entryX=0.25;entryY=1;entryDx=0;entryDy=0;exitX=0.5;exitY=0;exitDx=0;exitDy=0;" parent="1" source="ShOynKs_U-5MbjvXCMQn-2" target="ShOynKs_U-5MbjvXCMQn-1" edge="1">
          <mxGeometry width="50" height="50" relative="1" as="geometry">
            <mxPoint x="550" y="255" as="sourcePoint" />
            <mxPoint x="600" y="205" as="targetPoint" />
          </mxGeometry>
        </mxCell>
        <mxCell id="ShOynKs_U-5MbjvXCMQn-8" value="" style="endArrow=none;html=1;rounded=0;" parent="1" target="ShOynKs_U-5MbjvXCMQn-1" edge="1">
          <mxGeometry width="50" height="50" relative="1" as="geometry">
            <mxPoint x="100" y="165" as="sourcePoint" />
            <mxPoint x="150" y="115" as="targetPoint" />
          </mxGeometry>
        </mxCell>
        <mxCell id="ShOynKs_U-5MbjvXCMQn-9" value="" style="endArrow=none;html=1;rounded=0;exitX=0.5;exitY=1;exitDx=0;exitDy=0;entryX=0.323;entryY=-0.04;entryDx=0;entryDy=0;entryPerimeter=0;" parent="1" source="ShOynKs_U-5MbjvXCMQn-3" target="ShOynKs_U-5MbjvXCMQn-1" edge="1">
          <mxGeometry width="50" height="50" relative="1" as="geometry">
            <mxPoint x="550" y="255" as="sourcePoint" />
            <mxPoint x="600" y="205" as="targetPoint" />
          </mxGeometry>
        </mxCell>
        <mxCell id="ShOynKs_U-5MbjvXCMQn-11" value="plays" style="rhombus;whiteSpace=wrap;html=1;" parent="1" vertex="1">
          <mxGeometry x="180" y="90" width="70" height="60" as="geometry" />
        </mxCell>
        <mxCell id="ShOynKs_U-5MbjvXCMQn-12" value="Trainer" style="rounded=0;whiteSpace=wrap;html=1;" parent="1" vertex="1">
          <mxGeometry x="350" y="230" width="120" height="60" as="geometry" />
        </mxCell>
        <mxCell id="ShOynKs_U-5MbjvXCMQn-13" value="credits" style="ellipse;whiteSpace=wrap;html=1;" parent="1" vertex="1">
          <mxGeometry x="510" y="235" width="80" height="50" as="geometry" />
        </mxCell>
        <mxCell id="a6zSYxtTKGB_8VzBoaJb-125" value="level" style="ellipse;whiteSpace=wrap;html=1;" parent="1" vertex="1">
          <mxGeometry x="310" y="120" width="80" height="50" as="geometry" />
        </mxCell>
        <mxCell id="a6zSYxtTKGB_8VzBoaJb-126" value="expToNextLevel" style="ellipse;whiteSpace=wrap;html=1;" parent="1" vertex="1">
          <mxGeometry x="400" y="110" width="110" height="50" as="geometry" />
        </mxCell>
        <mxCell id="ShOynKs_U-5MbjvXCMQn-14" value="" style="endArrow=none;html=1;rounded=0;entryX=1;entryY=0.5;entryDx=0;entryDy=0;exitX=0;exitY=0.5;exitDx=0;exitDy=0;" parent="1" source="ShOynKs_U-5MbjvXCMQn-13" target="ShOynKs_U-5MbjvXCMQn-12" edge="1">
          <mxGeometry width="50" height="50" relative="1" as="geometry">
            <mxPoint x="610" y="390" as="sourcePoint" />
            <mxPoint x="660" y="340" as="targetPoint" />
          </mxGeometry>
        </mxCell>
        <mxCell id="ShOynKs_U-5MbjvXCMQn-15" value="" style="endArrow=none;html=1;rounded=0;entryX=1;entryY=0.5;entryDx=0;entryDy=0;" parent="1" source="ShOynKs_U-5MbjvXCMQn-12" target="ShOynKs_U-5MbjvXCMQn-11" edge="1">
          <mxGeometry width="50" height="50" relative="1" as="geometry">
            <mxPoint x="610" y="390" as="sourcePoint" />
            <mxPoint x="660" y="340" as="targetPoint" />
          </mxGeometry>
        </mxCell>
        <mxCell id="ShOynKs_U-5MbjvXCMQn-16" value="" style="shape=link;html=1;rounded=0;exitX=1;exitY=0.5;exitDx=0;exitDy=0;entryX=0;entryY=0.5;entryDx=0;entryDy=0;" parent="1" source="ShOynKs_U-5MbjvXCMQn-1" target="ShOynKs_U-5MbjvXCMQn-11" edge="1">
          <mxGeometry width="100" relative="1" as="geometry">
            <mxPoint x="530" y="235" as="sourcePoint" />
            <mxPoint x="630" y="235" as="targetPoint" />
          </mxGeometry>
        </mxCell>
        <mxCell id="ShOynKs_U-5MbjvXCMQn-17" value="CritterTemplate" style="rounded=0;whiteSpace=wrap;html=1;" parent="1" vertex="1">
          <mxGeometry x="345" y="555" width="150" height="70" as="geometry" />
        </mxCell>
        <mxCell id="ShOynKs_U-5MbjvXCMQn-21" value="" style="endArrow=none;html=1;rounded=0;exitX=0.5;exitY=0;exitDx=0;exitDy=0;entryX=0.5;entryY=1;entryDx=0;entryDy=0;" parent="1" source="ShOynKs_U-5MbjvXCMQn-17" target="a6zSYxtTKGB_8VzBoaJb-116" edge="1">
          <mxGeometry width="50" height="50" relative="1" as="geometry">
            <mxPoint x="625" y="505" as="sourcePoint" />
            <mxPoint x="420.31999999999994" y="506.7399999999999" as="targetPoint" />
          </mxGeometry>
        </mxCell>
        <mxCell id="ShOynKs_U-5MbjvXCMQn-22" value="" style="endArrow=none;html=1;rounded=0;exitX=0.5;exitY=1;exitDx=0;exitDy=0;entryX=0.389;entryY=-0.008;entryDx=0;entryDy=0;entryPerimeter=0;" parent="1" source="ShOynKs_U-5MbjvXCMQn-12" target="a6zSYxtTKGB_8VzBoaJb-116" edge="1">
          <mxGeometry width="50" height="50" relative="1" as="geometry">
            <mxPoint x="610" y="390" as="sourcePoint" />
            <mxPoint x="410" y="320" as="targetPoint" />
          </mxGeometry>
        </mxCell>
        <mxCell id="ShOynKs_U-5MbjvXCMQn-23" value="1" style="text;html=1;align=center;verticalAlign=middle;resizable=0;points=[];autosize=1;strokeColor=none;fillColor=none;" parent="1" vertex="1">
          <mxGeometry x="100" y="90" width="30" height="30" as="geometry" />
        </mxCell>
        <mxCell id="ShOynKs_U-5MbjvXCMQn-24" value="1" style="text;html=1;align=center;verticalAlign=middle;resizable=0;points=[];autosize=1;strokeColor=none;fillColor=none;" parent="1" vertex="1">
          <mxGeometry x="330" y="205" width="30" height="30" as="geometry" />
        </mxCell>
        <mxCell id="ShOynKs_U-5MbjvXCMQn-26" value="n" style="text;html=1;align=center;verticalAlign=middle;resizable=0;points=[];autosize=1;strokeColor=none;fillColor=none;" parent="1" vertex="1">
          <mxGeometry x="400" y="448" width="30" height="30" as="geometry" />
        </mxCell>
        <mxCell id="ShOynKs_U-5MbjvXCMQn-27" value="expToNextLevel" style="ellipse;whiteSpace=wrap;html=1;" parent="1" vertex="1">
          <mxGeometry x="515" y="410" width="95" height="40" as="geometry" />
        </mxCell>
        <mxCell id="ShOynKs_U-5MbjvXCMQn-29" value="" style="endArrow=none;html=1;rounded=0;entryX=0;entryY=0.5;entryDx=0;entryDy=0;exitX=1;exitY=0.75;exitDx=0;exitDy=0;" parent="1" source="a6zSYxtTKGB_8VzBoaJb-116" target="ShOynKs_U-5MbjvXCMQn-27" edge="1">
          <mxGeometry width="50" height="50" relative="1" as="geometry">
            <mxPoint x="450" y="360" as="sourcePoint" />
            <mxPoint x="660" y="340" as="targetPoint" />
          </mxGeometry>
        </mxCell>
        <mxCell id="ShOynKs_U-5MbjvXCMQn-30" value="Type" style="whiteSpace=wrap;html=1;" parent="1" vertex="1">
          <mxGeometry x="645" y="568" width="80" height="30" as="geometry" />
        </mxCell>
        <mxCell id="ShOynKs_U-5MbjvXCMQn-32" value="is of" style="rhombus;whiteSpace=wrap;html=1;" parent="1" vertex="1">
          <mxGeometry x="530" y="558" width="50" height="40" as="geometry" />
        </mxCell>
        <mxCell id="ShOynKs_U-5MbjvXCMQn-35" value="" style="endArrow=none;html=1;rounded=0;exitX=1;exitY=0;exitDx=0;exitDy=0;entryX=0.137;entryY=0.467;entryDx=0;entryDy=0;entryPerimeter=0;" parent="1" source="ShOynKs_U-5MbjvXCMQn-17" target="ShOynKs_U-5MbjvXCMQn-32" edge="1">
          <mxGeometry width="50" height="50" relative="1" as="geometry">
            <mxPoint x="625" y="505" as="sourcePoint" />
            <mxPoint x="675" y="455" as="targetPoint" />
          </mxGeometry>
        </mxCell>
        <mxCell id="ShOynKs_U-5MbjvXCMQn-36" value="" style="endArrow=none;html=1;rounded=0;exitX=1;exitY=0.5;exitDx=0;exitDy=0;entryX=0;entryY=1;entryDx=0;entryDy=0;" parent="1" source="ShOynKs_U-5MbjvXCMQn-32" target="ShOynKs_U-5MbjvXCMQn-30" edge="1">
          <mxGeometry width="50" height="50" relative="1" as="geometry">
            <mxPoint x="625" y="505" as="sourcePoint" />
            <mxPoint x="605" y="505" as="targetPoint" />
          </mxGeometry>
        </mxCell>
        <mxCell id="ShOynKs_U-5MbjvXCMQn-38" value="" style="endArrow=none;html=1;rounded=0;entryX=0;entryY=0.5;entryDx=0;entryDy=0;exitX=1;exitY=0.75;exitDx=0;exitDy=0;" parent="1" source="ShOynKs_U-5MbjvXCMQn-30" target="a6zSYxtTKGB_8VzBoaJb-11" edge="1">
          <mxGeometry width="50" height="50" relative="1" as="geometry">
            <mxPoint x="685" y="505" as="sourcePoint" />
            <mxPoint x="725" y="497.5" as="targetPoint" />
          </mxGeometry>
        </mxCell>
        <mxCell id="a6zSYxtTKGB_8VzBoaJb-1" value="effects" style="rhombus;whiteSpace=wrap;html=1;" parent="1" vertex="1">
          <mxGeometry x="640" y="633" width="40" height="40" as="geometry" />
        </mxCell>
        <mxCell id="a6zSYxtTKGB_8VzBoaJb-3" value="" style="endArrow=none;html=1;rounded=0;entryX=0;entryY=0;entryDx=0;entryDy=0;exitX=0.5;exitY=1;exitDx=0;exitDy=0;" parent="1" source="ShOynKs_U-5MbjvXCMQn-30" target="a6zSYxtTKGB_8VzBoaJb-1" edge="1">
          <mxGeometry width="50" height="50" relative="1" as="geometry">
            <mxPoint x="610" y="470" as="sourcePoint" />
            <mxPoint x="660" y="420" as="targetPoint" />
          </mxGeometry>
        </mxCell>
        <mxCell id="a6zSYxtTKGB_8VzBoaJb-5" value="effectivness" style="ellipse;whiteSpace=wrap;html=1;" parent="1" vertex="1">
          <mxGeometry x="815" y="703" width="80" height="50" as="geometry" />
        </mxCell>
        <mxCell id="a6zSYxtTKGB_8VzBoaJb-6" value="" style="endArrow=none;html=1;rounded=0;entryX=0;entryY=0.5;entryDx=0;entryDy=0;exitX=1;exitY=0.5;exitDx=0;exitDy=0;" parent="1" source="p2-zbKt5w9u9RG7VLdxa-14" target="a6zSYxtTKGB_8VzBoaJb-5" edge="1">
          <mxGeometry width="50" height="50" relative="1" as="geometry">
            <mxPoint x="610" y="470" as="sourcePoint" />
            <mxPoint x="660" y="420" as="targetPoint" />
          </mxGeometry>
        </mxCell>
        <mxCell id="a6zSYxtTKGB_8VzBoaJb-7" value="Attack" style="whiteSpace=wrap;html=1;" parent="1" vertex="1">
          <mxGeometry x="625" y="400" width="90" height="40" as="geometry" />
        </mxCell>
        <mxCell id="a6zSYxtTKGB_8VzBoaJb-8" value="is of" style="rhombus;whiteSpace=wrap;html=1;" parent="1" vertex="1">
          <mxGeometry x="680" y="475" width="30" height="30" as="geometry" />
        </mxCell>
        <mxCell id="a6zSYxtTKGB_8VzBoaJb-9" value="" style="endArrow=none;html=1;rounded=0;exitX=0.58;exitY=1.025;exitDx=0;exitDy=0;entryX=0;entryY=0;entryDx=0;entryDy=0;exitPerimeter=0;" parent="1" source="a6zSYxtTKGB_8VzBoaJb-7" target="a6zSYxtTKGB_8VzBoaJb-8" edge="1">
          <mxGeometry width="50" height="50" relative="1" as="geometry">
            <mxPoint x="625" y="605" as="sourcePoint" />
            <mxPoint x="770" y="450" as="targetPoint" />
          </mxGeometry>
        </mxCell>
        <mxCell id="a6zSYxtTKGB_8VzBoaJb-10" value="" style="endArrow=none;html=1;rounded=0;entryX=0.75;entryY=0;entryDx=0;entryDy=0;" parent="1" source="a6zSYxtTKGB_8VzBoaJb-8" target="ShOynKs_U-5MbjvXCMQn-30" edge="1">
          <mxGeometry width="50" height="50" relative="1" as="geometry">
            <mxPoint x="625" y="605" as="sourcePoint" />
            <mxPoint x="645" y="505" as="targetPoint" />
          </mxGeometry>
        </mxCell>
        <mxCell id="a6zSYxtTKGB_8VzBoaJb-11" value="Name" style="ellipse;whiteSpace=wrap;html=1;" parent="1" vertex="1">
          <mxGeometry x="750" y="550" width="70" height="40" as="geometry" />
        </mxCell>
        <mxCell id="a6zSYxtTKGB_8VzBoaJb-12" value="has" style="rhombus;whiteSpace=wrap;html=1;" parent="1" vertex="1">
          <mxGeometry x="500" y="475" width="40" height="40" as="geometry" />
        </mxCell>
        <mxCell id="a6zSYxtTKGB_8VzBoaJb-13" value="" style="endArrow=none;html=1;rounded=0;entryX=0;entryY=0.5;entryDx=0;entryDy=0;" parent="1" source="a6zSYxtTKGB_8VzBoaJb-116" target="a6zSYxtTKGB_8VzBoaJb-12" edge="1">
          <mxGeometry width="50" height="50" relative="1" as="geometry">
            <mxPoint x="695" y="575" as="sourcePoint" />
            <mxPoint x="745" y="525" as="targetPoint" />
          </mxGeometry>
        </mxCell>
        <mxCell id="a6zSYxtTKGB_8VzBoaJb-14" value="m" style="text;html=1;align=center;verticalAlign=middle;resizable=0;points=[];autosize=1;strokeColor=none;fillColor=none;" parent="1" vertex="1">
          <mxGeometry x="470" y="445" width="30" height="30" as="geometry" />
        </mxCell>
        <mxCell id="a6zSYxtTKGB_8VzBoaJb-15" value="" style="endArrow=none;html=1;rounded=0;exitX=1;exitY=0.5;exitDx=0;exitDy=0;" parent="1" source="a6zSYxtTKGB_8VzBoaJb-12" target="a6zSYxtTKGB_8VzBoaJb-7" edge="1">
          <mxGeometry width="50" height="50" relative="1" as="geometry">
            <mxPoint x="695" y="575" as="sourcePoint" />
            <mxPoint x="745" y="525" as="targetPoint" />
          </mxGeometry>
        </mxCell>
        <mxCell id="a6zSYxtTKGB_8VzBoaJb-16" value="n&amp;lt;5" style="text;html=1;align=center;verticalAlign=middle;resizable=0;points=[];autosize=1;strokeColor=none;fillColor=none;" parent="1" vertex="1">
          <mxGeometry x="605" y="440" width="40" height="30" as="geometry" />
        </mxCell>
        <mxCell id="a6zSYxtTKGB_8VzBoaJb-17" value="strength" style="ellipse;whiteSpace=wrap;html=1;" parent="1" vertex="1">
          <mxGeometry x="735" y="450" width="80" height="50" as="geometry" />
        </mxCell>
        <mxCell id="a6zSYxtTKGB_8VzBoaJb-18" value="" style="endArrow=none;html=1;rounded=0;entryX=0;entryY=0.5;entryDx=0;entryDy=0;exitX=1;exitY=1;exitDx=0;exitDy=0;" parent="1" source="a6zSYxtTKGB_8VzBoaJb-7" target="a6zSYxtTKGB_8VzBoaJb-17" edge="1">
          <mxGeometry width="50" height="50" relative="1" as="geometry">
            <mxPoint x="345" y="575" as="sourcePoint" />
            <mxPoint x="395" y="525" as="targetPoint" />
          </mxGeometry>
        </mxCell>
        <mxCell id="a6zSYxtTKGB_8VzBoaJb-19" value="evolve" style="rhombus;whiteSpace=wrap;html=1;" parent="1" vertex="1">
          <mxGeometry x="300" y="495" width="60" height="50" as="geometry" />
        </mxCell>
        <mxCell id="a6zSYxtTKGB_8VzBoaJb-20" value="" style="endArrow=none;html=1;rounded=0;entryX=0.5;entryY=1;entryDx=0;entryDy=0;exitX=0.129;exitY=0.025;exitDx=0;exitDy=0;exitPerimeter=0;" parent="1" source="ShOynKs_U-5MbjvXCMQn-17" target="a6zSYxtTKGB_8VzBoaJb-19" edge="1">
          <mxGeometry width="50" height="50" relative="1" as="geometry">
            <mxPoint x="455" y="655" as="sourcePoint" />
            <mxPoint x="505" y="605" as="targetPoint" />
          </mxGeometry>
        </mxCell>
        <mxCell id="a6zSYxtTKGB_8VzBoaJb-21" value="" style="endArrow=none;html=1;rounded=0;entryX=1;entryY=0.5;entryDx=0;entryDy=0;exitX=0.349;exitY=-0.023;exitDx=0;exitDy=0;exitPerimeter=0;" parent="1" source="ShOynKs_U-5MbjvXCMQn-17" target="a6zSYxtTKGB_8VzBoaJb-19" edge="1">
          <mxGeometry width="50" height="50" relative="1" as="geometry">
            <mxPoint x="455" y="655" as="sourcePoint" />
            <mxPoint x="505" y="605" as="targetPoint" />
          </mxGeometry>
        </mxCell>
        <mxCell id="a6zSYxtTKGB_8VzBoaJb-22" value="1" style="text;html=1;align=center;verticalAlign=middle;resizable=0;points=[];autosize=1;strokeColor=none;fillColor=none;rotation=0;" parent="1" vertex="1">
          <mxGeometry x="330" y="525" width="30" height="30" as="geometry" />
        </mxCell>
        <mxCell id="a6zSYxtTKGB_8VzBoaJb-23" value="1" style="text;html=1;align=center;verticalAlign=middle;resizable=0;points=[];autosize=1;strokeColor=none;fillColor=none;" parent="1" vertex="1">
          <mxGeometry x="360" y="515" width="30" height="30" as="geometry" />
        </mxCell>
        <mxCell id="a6zSYxtTKGB_8VzBoaJb-24" value="baseHealth" style="ellipse;whiteSpace=wrap;html=1;" parent="1" vertex="1">
          <mxGeometry x="260" y="593" width="70" height="40" as="geometry" />
        </mxCell>
        <mxCell id="a6zSYxtTKGB_8VzBoaJb-27" value="baseAttack" style="ellipse;whiteSpace=wrap;html=1;" parent="1" vertex="1">
          <mxGeometry x="305" y="675" width="80" height="50" as="geometry" />
        </mxCell>
        <mxCell id="a6zSYxtTKGB_8VzBoaJb-28" value="baseDefend" style="ellipse;whiteSpace=wrap;html=1;" parent="1" vertex="1">
          <mxGeometry x="410" y="648" width="80" height="50" as="geometry" />
        </mxCell>
        <mxCell id="a6zSYxtTKGB_8VzBoaJb-29" value="baseSpeed" style="ellipse;whiteSpace=wrap;html=1;" parent="1" vertex="1">
          <mxGeometry x="540" y="663" width="80" height="50" as="geometry" />
        </mxCell>
        <mxCell id="a6zSYxtTKGB_8VzBoaJb-30" value="" style="endArrow=none;html=1;rounded=0;" parent="1" source="a6zSYxtTKGB_8VzBoaJb-24" target="ShOynKs_U-5MbjvXCMQn-17" edge="1">
          <mxGeometry width="50" height="50" relative="1" as="geometry">
            <mxPoint x="455" y="655" as="sourcePoint" />
            <mxPoint x="505" y="605" as="targetPoint" />
          </mxGeometry>
        </mxCell>
        <mxCell id="a6zSYxtTKGB_8VzBoaJb-32" value="" style="endArrow=none;html=1;rounded=0;exitX=1;exitY=0;exitDx=0;exitDy=0;entryX=0.25;entryY=1;entryDx=0;entryDy=0;" parent="1" source="a6zSYxtTKGB_8VzBoaJb-27" target="ShOynKs_U-5MbjvXCMQn-17" edge="1">
          <mxGeometry width="50" height="50" relative="1" as="geometry">
            <mxPoint x="465" y="655" as="sourcePoint" />
            <mxPoint x="505" y="605" as="targetPoint" />
          </mxGeometry>
        </mxCell>
        <mxCell id="a6zSYxtTKGB_8VzBoaJb-33" value="" style="endArrow=none;html=1;rounded=0;exitX=0.5;exitY=0;exitDx=0;exitDy=0;" parent="1" source="a6zSYxtTKGB_8VzBoaJb-28" target="ShOynKs_U-5MbjvXCMQn-17" edge="1">
          <mxGeometry width="50" height="50" relative="1" as="geometry">
            <mxPoint x="455" y="655" as="sourcePoint" />
            <mxPoint x="505" y="605" as="targetPoint" />
          </mxGeometry>
        </mxCell>
        <mxCell id="a6zSYxtTKGB_8VzBoaJb-36" value="" style="endArrow=none;html=1;rounded=0;entryX=1;entryY=0.75;entryDx=0;entryDy=0;" parent="1" source="a6zSYxtTKGB_8VzBoaJb-29" target="ShOynKs_U-5MbjvXCMQn-17" edge="1">
          <mxGeometry width="50" height="50" relative="1" as="geometry">
            <mxPoint x="455" y="655" as="sourcePoint" />
            <mxPoint x="505" y="605" as="targetPoint" />
          </mxGeometry>
        </mxCell>
        <mxCell id="a6zSYxtTKGB_8VzBoaJb-37" value="is" style="rhombus;whiteSpace=wrap;html=1;" parent="1" vertex="1">
          <mxGeometry x="295" y="390" width="50" height="50" as="geometry" />
        </mxCell>
        <mxCell id="a6zSYxtTKGB_8VzBoaJb-42" value="WildEncounter" style="rounded=0;whiteSpace=wrap;html=1;" parent="1" vertex="1">
          <mxGeometry x="105" y="343" width="120" height="60" as="geometry" />
        </mxCell>
        <mxCell id="a6zSYxtTKGB_8VzBoaJb-43" value="" style="endArrow=none;html=1;rounded=0;entryX=0;entryY=0.5;entryDx=0;entryDy=0;exitX=1;exitY=0.5;exitDx=0;exitDy=0;" parent="1" source="a6zSYxtTKGB_8VzBoaJb-42" target="a6zSYxtTKGB_8VzBoaJb-37" edge="1">
          <mxGeometry width="50" height="50" relative="1" as="geometry">
            <mxPoint x="15" y="348" as="sourcePoint" />
            <mxPoint x="65" y="298" as="targetPoint" />
          </mxGeometry>
        </mxCell>
        <mxCell id="a6zSYxtTKGB_8VzBoaJb-44" value="n" style="text;html=1;align=center;verticalAlign=middle;resizable=0;points=[];autosize=1;strokeColor=none;fillColor=none;" parent="1" vertex="1">
          <mxGeometry x="220" y="350" width="30" height="30" as="geometry" />
        </mxCell>
        <mxCell id="a6zSYxtTKGB_8VzBoaJb-46" value="GeoLocation" style="ellipse;whiteSpace=wrap;html=1;" parent="1" vertex="1">
          <mxGeometry x="10" y="428" width="70" height="60" as="geometry" />
        </mxCell>
        <mxCell id="a6zSYxtTKGB_8VzBoaJb-131" value="expOnSucess" style="ellipse;whiteSpace=wrap;html=1;" parent="1" vertex="1">
          <mxGeometry x="160" y="258" width="100" height="60" as="geometry" />
        </mxCell>
        <mxCell id="a6zSYxtTKGB_8VzBoaJb-47" value="" style="endArrow=none;html=1;rounded=0;exitX=0.613;exitY=0.016;exitDx=0;exitDy=0;exitPerimeter=0;entryX=0;entryY=0.5;entryDx=0;entryDy=0;" parent="1" source="a6zSYxtTKGB_8VzBoaJb-46" target="a6zSYxtTKGB_8VzBoaJb-42" edge="1">
          <mxGeometry width="50" height="50" relative="1" as="geometry">
            <mxPoint x="53" y="424" as="sourcePoint" />
            <mxPoint x="53" y="408" as="targetPoint" />
          </mxGeometry>
        </mxCell>
        <mxCell id="a6zSYxtTKGB_8VzBoaJb-48" value="ItemCopy" style="rounded=0;whiteSpace=wrap;html=1;" parent="1" vertex="1">
          <mxGeometry x="710" y="160" width="120" height="60" as="geometry" />
        </mxCell>
        <mxCell id="a6zSYxtTKGB_8VzBoaJb-50" value="has" style="rhombus;whiteSpace=wrap;html=1;" parent="1" vertex="1">
          <mxGeometry x="590" y="170" width="60" height="55" as="geometry" />
        </mxCell>
        <mxCell id="a6zSYxtTKGB_8VzBoaJb-52" value="1" style="text;html=1;align=center;verticalAlign=middle;resizable=0;points=[];autosize=1;strokeColor=none;fillColor=none;" parent="1" vertex="1">
          <mxGeometry x="330" y="290" width="30" height="30" as="geometry" />
        </mxCell>
        <mxCell id="a6zSYxtTKGB_8VzBoaJb-55" value="" style="endArrow=none;html=1;rounded=0;" parent="1" source="a6zSYxtTKGB_8VzBoaJb-48" target="a6zSYxtTKGB_8VzBoaJb-57" edge="1">
          <mxGeometry width="50" height="50" relative="1" as="geometry">
            <mxPoint x="290" y="630" as="sourcePoint" />
            <mxPoint x="60" y="610" as="targetPoint" />
          </mxGeometry>
        </mxCell>
        <mxCell id="a6zSYxtTKGB_8VzBoaJb-57" value="quantity" style="ellipse;whiteSpace=wrap;html=1;direction=south;" parent="1" vertex="1">
          <mxGeometry x="875" y="210" width="75" height="50" as="geometry" />
        </mxCell>
        <mxCell id="a6zSYxtTKGB_8VzBoaJb-58" value="Arena" style="rounded=0;whiteSpace=wrap;html=1;" parent="1" vertex="1">
          <mxGeometry x="130" y="792" width="110" height="55" as="geometry" />
        </mxCell>
        <mxCell id="a6zSYxtTKGB_8VzBoaJb-59" value="pic" style="ellipse;whiteSpace=wrap;html=1;" parent="1" vertex="1">
          <mxGeometry x="235" y="867" width="50" height="40" as="geometry" />
        </mxCell>
        <mxCell id="a6zSYxtTKGB_8VzBoaJb-60" value="GeoLocation" style="ellipse;whiteSpace=wrap;html=1;" parent="1" vertex="1">
          <mxGeometry x="130" y="877" width="85" height="60" as="geometry" />
        </mxCell>
        <mxCell id="a6zSYxtTKGB_8VzBoaJb-61" value="" style="endArrow=none;html=1;rounded=0;exitX=0.5;exitY=0;exitDx=0;exitDy=0;" parent="1" source="a6zSYxtTKGB_8VzBoaJb-60" target="a6zSYxtTKGB_8VzBoaJb-58" edge="1">
          <mxGeometry width="50" height="50" relative="1" as="geometry">
            <mxPoint x="285" y="767" as="sourcePoint" />
            <mxPoint x="335" y="717" as="targetPoint" />
          </mxGeometry>
        </mxCell>
        <mxCell id="a6zSYxtTKGB_8VzBoaJb-62" value="" style="endArrow=none;html=1;rounded=0;exitX=0.5;exitY=0;exitDx=0;exitDy=0;" parent="1" source="a6zSYxtTKGB_8VzBoaJb-59" target="a6zSYxtTKGB_8VzBoaJb-58" edge="1">
          <mxGeometry width="50" height="50" relative="1" as="geometry">
            <mxPoint x="285" y="767" as="sourcePoint" />
            <mxPoint x="335" y="717" as="targetPoint" />
          </mxGeometry>
        </mxCell>
        <mxCell id="a6zSYxtTKGB_8VzBoaJb-63" value="creats" style="rhombus;whiteSpace=wrap;html=1;" parent="1" vertex="1">
          <mxGeometry x="140" y="470" width="50" height="50" as="geometry" />
        </mxCell>
        <mxCell id="a6zSYxtTKGB_8VzBoaJb-64" value="" style="endArrow=none;html=1;rounded=0;exitX=0.5;exitY=1;exitDx=0;exitDy=0;entryX=0.25;entryY=0;entryDx=0;entryDy=0;" parent="1" source="a6zSYxtTKGB_8VzBoaJb-63" target="a6zSYxtTKGB_8VzBoaJb-58" edge="1">
          <mxGeometry width="50" height="50" relative="1" as="geometry">
            <mxPoint x="290" y="460" as="sourcePoint" />
            <mxPoint x="340" y="410" as="targetPoint" />
          </mxGeometry>
        </mxCell>
        <mxCell id="a6zSYxtTKGB_8VzBoaJb-65" value="" style="endArrow=none;html=1;rounded=0;exitX=0.655;exitY=0.183;exitDx=0;exitDy=0;exitPerimeter=0;" parent="1" source="a6zSYxtTKGB_8VzBoaJb-63" target="ShOynKs_U-5MbjvXCMQn-12" edge="1">
          <mxGeometry width="50" height="50" relative="1" as="geometry">
            <mxPoint x="290" y="460" as="sourcePoint" />
            <mxPoint x="340" y="410" as="targetPoint" />
          </mxGeometry>
        </mxCell>
        <mxCell id="a6zSYxtTKGB_8VzBoaJb-68" value="n" style="text;html=1;align=center;verticalAlign=middle;resizable=0;points=[];autosize=1;strokeColor=none;fillColor=none;" parent="1" vertex="1">
          <mxGeometry x="150" y="765" width="30" height="30" as="geometry" />
        </mxCell>
        <mxCell id="a6zSYxtTKGB_8VzBoaJb-69" value="name" style="ellipse;whiteSpace=wrap;html=1;" parent="1" vertex="1">
          <mxGeometry x="290" y="837" width="70" height="50" as="geometry" />
        </mxCell>
        <mxCell id="a6zSYxtTKGB_8VzBoaJb-71" value="" style="endArrow=none;html=1;rounded=0;entryX=0.055;entryY=0.368;entryDx=0;entryDy=0;entryPerimeter=0;exitX=1;exitY=0.75;exitDx=0;exitDy=0;" parent="1" source="a6zSYxtTKGB_8VzBoaJb-58" target="a6zSYxtTKGB_8VzBoaJb-69" edge="1">
          <mxGeometry width="50" height="50" relative="1" as="geometry">
            <mxPoint x="265" y="842" as="sourcePoint" />
            <mxPoint x="315" y="792" as="targetPoint" />
          </mxGeometry>
        </mxCell>
        <mxCell id="a6zSYxtTKGB_8VzBoaJb-72" value="description" style="ellipse;whiteSpace=wrap;html=1;" parent="1" vertex="1">
          <mxGeometry x="265" y="765" width="75" height="50" as="geometry" />
        </mxCell>
        <mxCell id="a6zSYxtTKGB_8VzBoaJb-73" value="" style="endArrow=none;html=1;rounded=0;exitX=1;exitY=0.25;exitDx=0;exitDy=0;entryX=0.065;entryY=0.749;entryDx=0;entryDy=0;entryPerimeter=0;" parent="1" source="a6zSYxtTKGB_8VzBoaJb-58" target="a6zSYxtTKGB_8VzBoaJb-72" edge="1">
          <mxGeometry width="50" height="50" relative="1" as="geometry">
            <mxPoint x="285" y="767" as="sourcePoint" />
            <mxPoint x="335" y="717" as="targetPoint" />
          </mxGeometry>
        </mxCell>
        <mxCell id="a6zSYxtTKGB_8VzBoaJb-74" value="ID" style="ellipse;whiteSpace=wrap;html=1;" parent="1" vertex="1">
          <mxGeometry x="15" y="857" width="70" height="45" as="geometry" />
        </mxCell>
        <mxCell id="a6zSYxtTKGB_8VzBoaJb-75" value="" style="endArrow=none;html=1;rounded=0;" parent="1" source="a6zSYxtTKGB_8VzBoaJb-74" target="a6zSYxtTKGB_8VzBoaJb-58" edge="1">
          <mxGeometry width="50" height="50" relative="1" as="geometry">
            <mxPoint x="285" y="767" as="sourcePoint" />
            <mxPoint x="335" y="717" as="targetPoint" />
          </mxGeometry>
        </mxCell>
        <mxCell id="a6zSYxtTKGB_8VzBoaJb-76" value="StudentHub" style="rounded=0;whiteSpace=wrap;html=1;" parent="1" vertex="1">
          <mxGeometry x="920" y="540" width="110" height="55" as="geometry" />
        </mxCell>
        <mxCell id="a6zSYxtTKGB_8VzBoaJb-77" value="pic" style="ellipse;whiteSpace=wrap;html=1;" parent="1" vertex="1">
          <mxGeometry x="1030" y="648" width="50" height="40" as="geometry" />
        </mxCell>
        <mxCell id="a6zSYxtTKGB_8VzBoaJb-78" value="GeoLocation" style="ellipse;whiteSpace=wrap;html=1;" parent="1" vertex="1">
          <mxGeometry x="945" y="628" width="85" height="60" as="geometry" />
        </mxCell>
        <mxCell id="a6zSYxtTKGB_8VzBoaJb-79" value="" style="endArrow=none;html=1;rounded=0;exitX=0.5;exitY=0;exitDx=0;exitDy=0;" parent="1" source="a6zSYxtTKGB_8VzBoaJb-78" target="a6zSYxtTKGB_8VzBoaJb-76" edge="1">
          <mxGeometry width="50" height="50" relative="1" as="geometry">
            <mxPoint x="890" y="656" as="sourcePoint" />
            <mxPoint x="940" y="606" as="targetPoint" />
          </mxGeometry>
        </mxCell>
        <mxCell id="a6zSYxtTKGB_8VzBoaJb-80" value="" style="endArrow=none;html=1;rounded=0;exitX=0.5;exitY=0;exitDx=0;exitDy=0;" parent="1" source="a6zSYxtTKGB_8VzBoaJb-77" target="a6zSYxtTKGB_8VzBoaJb-76" edge="1">
          <mxGeometry width="50" height="50" relative="1" as="geometry">
            <mxPoint x="890" y="656" as="sourcePoint" />
            <mxPoint x="940" y="606" as="targetPoint" />
          </mxGeometry>
        </mxCell>
        <mxCell id="a6zSYxtTKGB_8VzBoaJb-82" value="name" style="ellipse;whiteSpace=wrap;html=1;" parent="1" vertex="1">
          <mxGeometry x="1070" y="558" width="70" height="50" as="geometry" />
        </mxCell>
        <mxCell id="a6zSYxtTKGB_8VzBoaJb-83" value="" style="endArrow=none;html=1;rounded=0;entryX=0.055;entryY=0.368;entryDx=0;entryDy=0;entryPerimeter=0;exitX=1;exitY=0.75;exitDx=0;exitDy=0;" parent="1" source="a6zSYxtTKGB_8VzBoaJb-76" target="a6zSYxtTKGB_8VzBoaJb-82" edge="1">
          <mxGeometry width="50" height="50" relative="1" as="geometry">
            <mxPoint x="870" y="731" as="sourcePoint" />
            <mxPoint x="920" y="681" as="targetPoint" />
          </mxGeometry>
        </mxCell>
        <mxCell id="a6zSYxtTKGB_8VzBoaJb-84" value="description" style="ellipse;whiteSpace=wrap;html=1;" parent="1" vertex="1">
          <mxGeometry x="1067.5" y="488" width="75" height="50" as="geometry" />
        </mxCell>
        <mxCell id="a6zSYxtTKGB_8VzBoaJb-85" value="" style="endArrow=none;html=1;rounded=0;exitX=1;exitY=0.25;exitDx=0;exitDy=0;entryX=0.065;entryY=0.749;entryDx=0;entryDy=0;entryPerimeter=0;" parent="1" source="a6zSYxtTKGB_8VzBoaJb-76" target="a6zSYxtTKGB_8VzBoaJb-84" edge="1">
          <mxGeometry width="50" height="50" relative="1" as="geometry">
            <mxPoint x="890" y="656" as="sourcePoint" />
            <mxPoint x="940" y="606" as="targetPoint" />
          </mxGeometry>
        </mxCell>
        <mxCell id="a6zSYxtTKGB_8VzBoaJb-86" value="ID" style="ellipse;whiteSpace=wrap;html=1;" parent="1" vertex="1">
          <mxGeometry x="1090" y="612.5" width="70" height="45" as="geometry" />
        </mxCell>
        <mxCell id="a6zSYxtTKGB_8VzBoaJb-87" value="" style="endArrow=none;html=1;rounded=0;" parent="1" source="a6zSYxtTKGB_8VzBoaJb-86" target="a6zSYxtTKGB_8VzBoaJb-76" edge="1">
          <mxGeometry width="50" height="50" relative="1" as="geometry">
            <mxPoint x="890" y="656" as="sourcePoint" />
            <mxPoint x="940" y="606" as="targetPoint" />
          </mxGeometry>
        </mxCell>
        <mxCell id="a6zSYxtTKGB_8VzBoaJb-90" value="m" style="text;html=1;align=center;verticalAlign=middle;resizable=0;points=[];autosize=1;strokeColor=none;fillColor=none;" parent="1" vertex="1">
          <mxGeometry x="945" y="518" width="30" height="30" as="geometry" />
        </mxCell>
        <mxCell id="a6zSYxtTKGB_8VzBoaJb-99" value="" style="endArrow=none;html=1;rounded=0;exitX=1;exitY=0;exitDx=0;exitDy=0;entryX=0;entryY=0.5;entryDx=0;entryDy=0;" parent="1" source="ShOynKs_U-5MbjvXCMQn-12" target="a6zSYxtTKGB_8VzBoaJb-50" edge="1">
          <mxGeometry width="50" height="50" relative="1" as="geometry">
            <mxPoint x="520" y="230" as="sourcePoint" />
            <mxPoint x="570" y="180" as="targetPoint" />
          </mxGeometry>
        </mxCell>
        <mxCell id="a6zSYxtTKGB_8VzBoaJb-100" value="" style="endArrow=none;html=1;rounded=0;entryX=0;entryY=0.5;entryDx=0;entryDy=0;exitX=1;exitY=0.5;exitDx=0;exitDy=0;" parent="1" source="a6zSYxtTKGB_8VzBoaJb-50" target="a6zSYxtTKGB_8VzBoaJb-48" edge="1">
          <mxGeometry width="50" height="50" relative="1" as="geometry">
            <mxPoint x="520" y="230" as="sourcePoint" />
            <mxPoint x="570" y="180" as="targetPoint" />
          </mxGeometry>
        </mxCell>
        <mxCell id="a6zSYxtTKGB_8VzBoaJb-101" value="1" style="text;html=1;align=center;verticalAlign=middle;resizable=0;points=[];autosize=1;strokeColor=none;fillColor=none;" parent="1" vertex="1">
          <mxGeometry x="445" y="198" width="30" height="30" as="geometry" />
        </mxCell>
        <mxCell id="a6zSYxtTKGB_8VzBoaJb-102" value="m" style="text;html=1;align=center;verticalAlign=middle;resizable=0;points=[];autosize=1;strokeColor=none;fillColor=none;" parent="1" vertex="1">
          <mxGeometry x="680" y="160" width="30" height="30" as="geometry" />
        </mxCell>
        <mxCell id="a6zSYxtTKGB_8VzBoaJb-104" value="ItemTemplate" style="whiteSpace=wrap;html=1;" parent="1" vertex="1">
          <mxGeometry x="860" y="350" width="120" height="60" as="geometry" />
        </mxCell>
        <mxCell id="a6zSYxtTKGB_8VzBoaJb-106" value="ID" style="ellipse;whiteSpace=wrap;html=1;" parent="1" vertex="1">
          <mxGeometry x="930" y="438" width="50" height="40" as="geometry" />
        </mxCell>
        <mxCell id="a6zSYxtTKGB_8VzBoaJb-107" value="name" style="ellipse;whiteSpace=wrap;html=1;" parent="1" vertex="1">
          <mxGeometry x="1005" y="410" width="50" height="40" as="geometry" />
        </mxCell>
        <mxCell id="a6zSYxtTKGB_8VzBoaJb-108" value="" style="endArrow=none;html=1;rounded=0;exitX=0.992;exitY=0.627;exitDx=0;exitDy=0;exitPerimeter=0;" parent="1" source="a6zSYxtTKGB_8VzBoaJb-104" target="a6zSYxtTKGB_8VzBoaJb-107" edge="1">
          <mxGeometry width="50" height="50" relative="1" as="geometry">
            <mxPoint x="520" y="400" as="sourcePoint" />
            <mxPoint x="570" y="350" as="targetPoint" />
          </mxGeometry>
        </mxCell>
        <mxCell id="a6zSYxtTKGB_8VzBoaJb-109" value="" style="endArrow=none;html=1;rounded=0;exitX=0.5;exitY=0;exitDx=0;exitDy=0;" parent="1" source="a6zSYxtTKGB_8VzBoaJb-106" target="a6zSYxtTKGB_8VzBoaJb-104" edge="1">
          <mxGeometry width="50" height="50" relative="1" as="geometry">
            <mxPoint x="520" y="400" as="sourcePoint" />
            <mxPoint x="570" y="350" as="targetPoint" />
          </mxGeometry>
        </mxCell>
        <mxCell id="a6zSYxtTKGB_8VzBoaJb-110" value="" style="endArrow=none;html=1;rounded=0;exitX=0.353;exitY=-0.045;exitDx=0;exitDy=0;exitPerimeter=0;" parent="1" source="a6zSYxtTKGB_8VzBoaJb-104" edge="1">
          <mxGeometry width="50" height="50" relative="1" as="geometry">
            <mxPoint x="520" y="480" as="sourcePoint" />
            <mxPoint x="810" y="220" as="targetPoint" />
          </mxGeometry>
        </mxCell>
        <mxCell id="a6zSYxtTKGB_8VzBoaJb-111" value="" style="endArrow=none;html=1;rounded=0;exitX=0.318;exitY=-0.018;exitDx=0;exitDy=0;exitPerimeter=0;" parent="1" source="a6zSYxtTKGB_8VzBoaJb-76" target="a6zSYxtTKGB_8VzBoaJb-104" edge="1">
          <mxGeometry width="50" height="50" relative="1" as="geometry">
            <mxPoint x="770" y="680" as="sourcePoint" />
            <mxPoint x="798.6599999999999" y="264.18999999999994" as="targetPoint" />
            <Array as="points">
              <mxPoint x="930" y="490" />
            </Array>
          </mxGeometry>
        </mxCell>
        <mxCell id="a6zSYxtTKGB_8VzBoaJb-113" value="n" style="text;html=1;align=center;verticalAlign=middle;resizable=0;points=[];autosize=1;strokeColor=none;fillColor=none;" parent="1" vertex="1">
          <mxGeometry x="895" y="405" width="30" height="30" as="geometry" />
        </mxCell>
        <mxCell id="a6zSYxtTKGB_8VzBoaJb-114" value="1" style="text;html=1;align=center;verticalAlign=middle;resizable=0;points=[];autosize=1;strokeColor=none;fillColor=none;" parent="1" vertex="1">
          <mxGeometry x="905" y="318" width="30" height="30" as="geometry" />
        </mxCell>
        <mxCell id="a6zSYxtTKGB_8VzBoaJb-115" value="m" style="text;html=1;align=center;verticalAlign=middle;resizable=0;points=[];autosize=1;strokeColor=none;fillColor=none;" parent="1" vertex="1">
          <mxGeometry x="815" y="218" width="30" height="30" as="geometry" />
        </mxCell>
        <mxCell id="a6zSYxtTKGB_8VzBoaJb-116" value="CritterCopy" style="rounded=0;whiteSpace=wrap;html=1;" parent="1" vertex="1">
          <mxGeometry x="365" y="390" width="120" height="60" as="geometry" />
        </mxCell>
        <mxCell id="a6zSYxtTKGB_8VzBoaJb-123" value="level" style="ellipse;whiteSpace=wrap;html=1;" parent="1" vertex="1">
          <mxGeometry x="510" y="330" width="80" height="50" as="geometry" />
        </mxCell>
        <mxCell id="a6zSYxtTKGB_8VzBoaJb-129" value="nature(wesen)" style="ellipse;whiteSpace=wrap;html=1;" parent="1" vertex="1">
          <mxGeometry x="610" y="340" width="80" height="50" as="geometry" />
        </mxCell>
        <mxCell id="a6zSYxtTKGB_8VzBoaJb-118" value="" style="endArrow=none;html=1;rounded=0;exitX=0;exitY=1;exitDx=0;exitDy=0;entryX=1;entryY=0;entryDx=0;entryDy=0;" parent="1" source="a6zSYxtTKGB_8VzBoaJb-116" target="a6zSYxtTKGB_8VzBoaJb-135" edge="1">
          <mxGeometry width="50" height="50" relative="1" as="geometry">
            <mxPoint x="500" y="390" as="sourcePoint" />
            <mxPoint x="250" y="500" as="targetPoint" />
          </mxGeometry>
        </mxCell>
        <mxCell id="a6zSYxtTKGB_8VzBoaJb-119" value="m" style="text;html=1;align=center;verticalAlign=middle;resizable=0;points=[];autosize=1;strokeColor=none;fillColor=none;" parent="1" vertex="1">
          <mxGeometry x="410" y="535" width="30" height="30" as="geometry" />
        </mxCell>
        <mxCell id="a6zSYxtTKGB_8VzBoaJb-120" value="n" style="text;html=1;align=center;verticalAlign=middle;resizable=0;points=[];autosize=1;strokeColor=none;fillColor=none;" parent="1" vertex="1">
          <mxGeometry x="390" y="280" width="30" height="30" as="geometry" />
        </mxCell>
        <mxCell id="a6zSYxtTKGB_8VzBoaJb-121" value="m" style="text;html=1;align=center;verticalAlign=middle;resizable=0;points=[];autosize=1;strokeColor=none;fillColor=none;" parent="1" vertex="1">
          <mxGeometry x="405" y="365" width="30" height="30" as="geometry" />
        </mxCell>
        <mxCell id="a6zSYxtTKGB_8VzBoaJb-124" value="" style="endArrow=none;html=1;rounded=0;exitX=0.303;exitY=0.99;exitDx=0;exitDy=0;exitPerimeter=0;" parent="1" source="a6zSYxtTKGB_8VzBoaJb-123" target="a6zSYxtTKGB_8VzBoaJb-116" edge="1">
          <mxGeometry width="50" height="50" relative="1" as="geometry">
            <mxPoint x="520" y="480" as="sourcePoint" />
            <mxPoint x="570" y="430" as="targetPoint" />
          </mxGeometry>
        </mxCell>
        <mxCell id="a6zSYxtTKGB_8VzBoaJb-127" value="" style="endArrow=none;html=1;rounded=0;entryX=0.5;entryY=1;entryDx=0;entryDy=0;exitX=0.619;exitY=0.016;exitDx=0;exitDy=0;exitPerimeter=0;" parent="1" source="ShOynKs_U-5MbjvXCMQn-12" target="a6zSYxtTKGB_8VzBoaJb-126" edge="1">
          <mxGeometry width="50" height="50" relative="1" as="geometry">
            <mxPoint x="520" y="320" as="sourcePoint" />
            <mxPoint x="570" y="270" as="targetPoint" />
          </mxGeometry>
        </mxCell>
        <mxCell id="a6zSYxtTKGB_8VzBoaJb-128" value="" style="endArrow=none;html=1;rounded=0;entryX=0.5;entryY=1;entryDx=0;entryDy=0;exitX=0.25;exitY=0;exitDx=0;exitDy=0;" parent="1" source="ShOynKs_U-5MbjvXCMQn-12" target="a6zSYxtTKGB_8VzBoaJb-125" edge="1">
          <mxGeometry width="50" height="50" relative="1" as="geometry">
            <mxPoint x="520" y="320" as="sourcePoint" />
            <mxPoint x="570" y="270" as="targetPoint" />
          </mxGeometry>
        </mxCell>
        <mxCell id="a6zSYxtTKGB_8VzBoaJb-130" value="" style="endArrow=none;html=1;rounded=0;exitX=0;exitY=1;exitDx=0;exitDy=0;entryX=1;entryY=0.5;entryDx=0;entryDy=0;" parent="1" source="a6zSYxtTKGB_8VzBoaJb-129" target="a6zSYxtTKGB_8VzBoaJb-116" edge="1">
          <mxGeometry width="50" height="50" relative="1" as="geometry">
            <mxPoint x="520" y="320" as="sourcePoint" />
            <mxPoint x="570" y="270" as="targetPoint" />
          </mxGeometry>
        </mxCell>
        <mxCell id="a6zSYxtTKGB_8VzBoaJb-132" value="" style="endArrow=none;html=1;rounded=0;entryX=0;entryY=0.5;entryDx=0;entryDy=0;" parent="1" source="a6zSYxtTKGB_8VzBoaJb-42" target="a6zSYxtTKGB_8VzBoaJb-131" edge="1">
          <mxGeometry width="50" height="50" relative="1" as="geometry">
            <mxPoint x="95" y="368" as="sourcePoint" />
            <mxPoint x="145" y="318" as="targetPoint" />
          </mxGeometry>
        </mxCell>
        <mxCell id="a6zSYxtTKGB_8VzBoaJb-135" value="is in" style="rhombus;whiteSpace=wrap;html=1;" parent="1" vertex="1">
          <mxGeometry x="210" y="498" width="50" height="52" as="geometry" />
        </mxCell>
        <mxCell id="a6zSYxtTKGB_8VzBoaJb-136" value="" style="endArrow=none;html=1;rounded=0;exitX=0;exitY=1;exitDx=0;exitDy=0;entryX=0.75;entryY=0;entryDx=0;entryDy=0;" parent="1" source="a6zSYxtTKGB_8VzBoaJb-135" target="a6zSYxtTKGB_8VzBoaJb-58" edge="1">
          <mxGeometry width="50" height="50" relative="1" as="geometry">
            <mxPoint x="520" y="570" as="sourcePoint" />
            <mxPoint x="570" y="520" as="targetPoint" />
          </mxGeometry>
        </mxCell>
        <mxCell id="a6zSYxtTKGB_8VzBoaJb-138" value="" style="endArrow=none;html=1;rounded=0;entryX=0.865;entryY=1.004;entryDx=0;entryDy=0;entryPerimeter=0;" parent="1" target="ShOynKs_U-5MbjvXCMQn-12" edge="1">
          <mxGeometry width="50" height="50" relative="1" as="geometry">
            <mxPoint x="730" y="310" as="sourcePoint" />
            <mxPoint x="570" y="430" as="targetPoint" />
            <Array as="points">
              <mxPoint x="730" y="310" />
            </Array>
          </mxGeometry>
        </mxCell>
        <mxCell id="a6zSYxtTKGB_8VzBoaJb-139" value="creats" style="rhombus;whiteSpace=wrap;html=1;" parent="1" vertex="1">
          <mxGeometry x="725" y="280" width="60" height="60" as="geometry" />
        </mxCell>
        <mxCell id="a6zSYxtTKGB_8VzBoaJb-140" value="" style="endArrow=none;html=1;rounded=0;entryX=0.857;entryY=0.739;entryDx=0;entryDy=0;entryPerimeter=0;exitX=0.005;exitY=0.126;exitDx=0;exitDy=0;exitPerimeter=0;" parent="1" source="a6zSYxtTKGB_8VzBoaJb-76" target="a6zSYxtTKGB_8VzBoaJb-139" edge="1">
          <mxGeometry width="50" height="50" relative="1" as="geometry">
            <mxPoint x="520" y="480" as="sourcePoint" />
            <mxPoint x="570" y="430" as="targetPoint" />
          </mxGeometry>
        </mxCell>
        <mxCell id="a6zSYxtTKGB_8VzBoaJb-143" value="" style="endArrow=none;html=1;rounded=0;exitX=0;exitY=0.5;exitDx=0;exitDy=0;entryX=1;entryY=0.5;entryDx=0;entryDy=0;" parent="1" source="a6zSYxtTKGB_8VzBoaJb-116" target="a6zSYxtTKGB_8VzBoaJb-37" edge="1">
          <mxGeometry width="50" height="50" relative="1" as="geometry">
            <mxPoint x="580" y="310" as="sourcePoint" />
            <mxPoint x="630" y="260" as="targetPoint" />
          </mxGeometry>
        </mxCell>
        <mxCell id="a6zSYxtTKGB_8VzBoaJb-144" value="1" style="text;html=1;align=center;verticalAlign=middle;resizable=0;points=[];autosize=1;strokeColor=none;fillColor=none;" parent="1" vertex="1">
          <mxGeometry x="345" y="398" width="30" height="30" as="geometry" />
        </mxCell>
        <mxCell id="a6zSYxtTKGB_8VzBoaJb-145" value="1" style="text;html=1;align=center;verticalAlign=middle;resizable=0;points=[];autosize=1;strokeColor=none;fillColor=none;" parent="1" vertex="1">
          <mxGeometry x="205" y="768" width="30" height="30" as="geometry" />
        </mxCell>
        <mxCell id="a6zSYxtTKGB_8VzBoaJb-146" value="1" style="text;html=1;align=center;verticalAlign=middle;resizable=0;points=[];autosize=1;strokeColor=none;fillColor=none;" parent="1" vertex="1">
          <mxGeometry x="345" y="428" width="30" height="30" as="geometry" />
        </mxCell>
        <mxCell id="a6zSYxtTKGB_8VzBoaJb-147" value="n" style="text;html=1;align=center;verticalAlign=middle;resizable=0;points=[];autosize=1;strokeColor=none;fillColor=none;" parent="1" vertex="1">
          <mxGeometry x="895" y="528" width="30" height="30" as="geometry" />
        </mxCell>
        <mxCell id="a6zSYxtTKGB_8VzBoaJb-148" value="m" style="text;html=1;align=center;verticalAlign=middle;resizable=0;points=[];autosize=1;strokeColor=none;fillColor=none;" parent="1" vertex="1">
          <mxGeometry x="465" y="270" width="30" height="30" as="geometry" />
        </mxCell>
        <mxCell id="a6zSYxtTKGB_8VzBoaJb-150" value="id" style="ellipse;whiteSpace=wrap;html=1;" parent="1" vertex="1">
          <mxGeometry x="425" y="310" width="80" height="40" as="geometry" />
        </mxCell>
        <mxCell id="a6zSYxtTKGB_8VzBoaJb-153" value="id" style="ellipse;whiteSpace=wrap;html=1;" parent="1" vertex="1">
          <mxGeometry x="465" y="710" width="80" height="40" as="geometry" />
        </mxCell>
        <mxCell id="a6zSYxtTKGB_8VzBoaJb-151" value="" style="endArrow=none;html=1;rounded=0;entryX=0.3;entryY=0.969;entryDx=0;entryDy=0;entryPerimeter=0;exitX=0.663;exitY=-0.015;exitDx=0;exitDy=0;exitPerimeter=0;" parent="1" source="a6zSYxtTKGB_8VzBoaJb-116" target="a6zSYxtTKGB_8VzBoaJb-150" edge="1">
          <mxGeometry width="50" height="50" relative="1" as="geometry">
            <mxPoint x="560" y="560" as="sourcePoint" />
            <mxPoint x="610" y="510" as="targetPoint" />
          </mxGeometry>
        </mxCell>
        <mxCell id="a6zSYxtTKGB_8VzBoaJb-154" value="" style="endArrow=none;html=1;rounded=0;exitX=0.5;exitY=0;exitDx=0;exitDy=0;" parent="1" source="a6zSYxtTKGB_8VzBoaJb-153" edge="1">
          <mxGeometry width="50" height="50" relative="1" as="geometry">
            <mxPoint x="490" y="663" as="sourcePoint" />
            <mxPoint x="480" y="620" as="targetPoint" />
          </mxGeometry>
        </mxCell>
        <mxCell id="a6zSYxtTKGB_8VzBoaJb-155" value="" style="endArrow=none;html=1;rounded=0;exitX=0.152;exitY=0.01;exitDx=0;exitDy=0;exitPerimeter=0;" parent="1" source="ShOynKs_U-5MbjvXCMQn-12" edge="1">
          <mxGeometry width="50" height="50" relative="1" as="geometry">
            <mxPoint x="560" y="230" as="sourcePoint" />
            <mxPoint x="240" y="120" as="targetPoint" />
          </mxGeometry>
        </mxCell>
        <mxCell id="a6zSYxtTKGB_8VzBoaJb-156" value="email" style="ellipse;whiteSpace=wrap;html=1;" parent="1" vertex="1">
          <mxGeometry x="80" y="20" width="85" height="55" as="geometry" />
        </mxCell>
        <mxCell id="a6zSYxtTKGB_8VzBoaJb-157" value="" style="endArrow=none;html=1;rounded=0;entryX=0.315;entryY=0.961;entryDx=0;entryDy=0;entryPerimeter=0;" parent="1" source="ShOynKs_U-5MbjvXCMQn-1" target="a6zSYxtTKGB_8VzBoaJb-156" edge="1">
          <mxGeometry width="50" height="50" relative="1" as="geometry">
            <mxPoint x="560" y="230" as="sourcePoint" />
            <mxPoint x="610" y="180" as="targetPoint" />
          </mxGeometry>
        </mxCell>
        <mxCell id="a6zSYxtTKGB_8VzBoaJb-158" value="dob" style="ellipse;whiteSpace=wrap;html=1;" parent="1" vertex="1">
          <mxGeometry x="-150" y="110" width="80" height="45" as="geometry" />
        </mxCell>
        <mxCell id="a6zSYxtTKGB_8VzBoaJb-159" value="" style="endArrow=none;html=1;rounded=0;exitX=1;exitY=0.5;exitDx=0;exitDy=0;entryX=0;entryY=0.75;entryDx=0;entryDy=0;" parent="1" source="a6zSYxtTKGB_8VzBoaJb-158" target="ShOynKs_U-5MbjvXCMQn-1" edge="1">
          <mxGeometry width="50" height="50" relative="1" as="geometry">
            <mxPoint x="290" y="230" as="sourcePoint" />
            <mxPoint x="340" y="180" as="targetPoint" />
          </mxGeometry>
        </mxCell>
        <mxCell id="a6zSYxtTKGB_8VzBoaJb-160" value="loginname" style="ellipse;whiteSpace=wrap;html=1;" parent="1" vertex="1">
          <mxGeometry x="-110" y="40" width="90" height="60" as="geometry" />
        </mxCell>
        <mxCell id="a6zSYxtTKGB_8VzBoaJb-161" value="" style="endArrow=none;html=1;rounded=0;exitX=1;exitY=1;exitDx=0;exitDy=0;entryX=0;entryY=0.25;entryDx=0;entryDy=0;" parent="1" source="a6zSYxtTKGB_8VzBoaJb-160" target="ShOynKs_U-5MbjvXCMQn-1" edge="1">
          <mxGeometry width="50" height="50" relative="1" as="geometry">
            <mxPoint x="290" y="230" as="sourcePoint" />
            <mxPoint x="340" y="180" as="targetPoint" />
          </mxGeometry>
        </mxCell>
        <mxCell id="a6zSYxtTKGB_8VzBoaJb-162" value="costs" style="ellipse;whiteSpace=wrap;html=1;" parent="1" vertex="1">
          <mxGeometry x="990" y="343" width="90" height="50" as="geometry" />
        </mxCell>
        <mxCell id="a6zSYxtTKGB_8VzBoaJb-163" value="" style="endArrow=none;html=1;rounded=0;exitX=0;exitY=0.5;exitDx=0;exitDy=0;entryX=0.995;entryY=0.387;entryDx=0;entryDy=0;entryPerimeter=0;" parent="1" source="a6zSYxtTKGB_8VzBoaJb-162" target="a6zSYxtTKGB_8VzBoaJb-104" edge="1">
          <mxGeometry width="50" height="50" relative="1" as="geometry">
            <mxPoint x="840" y="310" as="sourcePoint" />
            <mxPoint x="890" y="260" as="targetPoint" />
          </mxGeometry>
        </mxCell>
        <mxCell id="p2-zbKt5w9u9RG7VLdxa-1" value="" style="endArrow=none;html=1;rounded=0;entryX=1;entryY=0.25;entryDx=0;entryDy=0;exitX=0;exitY=1;exitDx=0;exitDy=0;" edge="1" parent="1" source="p2-zbKt5w9u9RG7VLdxa-2" target="a6zSYxtTKGB_8VzBoaJb-7">
          <mxGeometry width="50" height="50" relative="1" as="geometry">
            <mxPoint x="750" y="400" as="sourcePoint" />
            <mxPoint x="430" y="480" as="targetPoint" />
          </mxGeometry>
        </mxCell>
        <mxCell id="p2-zbKt5w9u9RG7VLdxa-2" value="name" style="ellipse;whiteSpace=wrap;html=1;" vertex="1" parent="1">
          <mxGeometry x="730" y="375" width="70" height="35" as="geometry" />
        </mxCell>
        <mxCell id="p2-zbKt5w9u9RG7VLdxa-3" value="1" style="text;html=1;align=center;verticalAlign=middle;resizable=0;points=[];autosize=1;strokeColor=none;fillColor=none;" vertex="1" parent="1">
          <mxGeometry x="615" y="568" width="30" height="30" as="geometry" />
        </mxCell>
        <mxCell id="p2-zbKt5w9u9RG7VLdxa-4" value="n" style="text;html=1;align=center;verticalAlign=middle;resizable=0;points=[];autosize=1;strokeColor=none;fillColor=none;" vertex="1" parent="1">
          <mxGeometry x="485" y="548" width="30" height="30" as="geometry" />
        </mxCell>
        <mxCell id="p2-zbKt5w9u9RG7VLdxa-5" value="n" style="text;html=1;align=center;verticalAlign=middle;resizable=0;points=[];autosize=1;strokeColor=none;fillColor=none;" vertex="1" parent="1">
          <mxGeometry x="655" y="428" width="30" height="30" as="geometry" />
        </mxCell>
        <mxCell id="p2-zbKt5w9u9RG7VLdxa-6" value="1" style="text;html=1;align=center;verticalAlign=middle;resizable=0;points=[];autosize=1;strokeColor=none;fillColor=none;" vertex="1" parent="1">
          <mxGeometry x="685" y="545" width="30" height="30" as="geometry" />
        </mxCell>
        <mxCell id="p2-zbKt5w9u9RG7VLdxa-7" value="1" style="text;html=1;align=center;verticalAlign=middle;resizable=0;points=[];autosize=1;strokeColor=none;fillColor=none;" vertex="1" parent="1">
          <mxGeometry x="665" y="588" width="30" height="30" as="geometry" />
        </mxCell>
        <mxCell id="p2-zbKt5w9u9RG7VLdxa-8" value="1" style="text;html=1;align=center;verticalAlign=middle;resizable=0;points=[];autosize=1;strokeColor=none;fillColor=none;" vertex="1" parent="1">
          <mxGeometry x="695" y="590" width="30" height="30" as="geometry" />
        </mxCell>
        <mxCell id="p2-zbKt5w9u9RG7VLdxa-9" value="" style="endArrow=none;html=1;rounded=0;entryX=0.5;entryY=1;entryDx=0;entryDy=0;" edge="1" parent="1" target="a6zSYxtTKGB_8VzBoaJb-8">
          <mxGeometry width="50" height="50" relative="1" as="geometry">
            <mxPoint x="690" y="570" as="sourcePoint" />
            <mxPoint x="570" y="550" as="targetPoint" />
          </mxGeometry>
        </mxCell>
        <mxCell id="p2-zbKt5w9u9RG7VLdxa-10" value="" style="endArrow=none;html=1;rounded=0;exitX=1.001;exitY=0.141;exitDx=0;exitDy=0;exitPerimeter=0;" edge="1" parent="1" source="ShOynKs_U-5MbjvXCMQn-17">
          <mxGeometry width="50" height="50" relative="1" as="geometry">
            <mxPoint x="520" y="600" as="sourcePoint" />
            <mxPoint x="530" y="580" as="targetPoint" />
          </mxGeometry>
        </mxCell>
        <mxCell id="p2-zbKt5w9u9RG7VLdxa-11" value="id" style="ellipse;whiteSpace=wrap;html=1;" vertex="1" parent="1">
          <mxGeometry x="10" y="270" width="90" height="50" as="geometry" />
        </mxCell>
        <mxCell id="p2-zbKt5w9u9RG7VLdxa-12" value="" style="endArrow=none;html=1;rounded=0;entryX=0.745;entryY=0.917;entryDx=0;entryDy=0;entryPerimeter=0;exitX=0;exitY=0;exitDx=0;exitDy=0;" edge="1" parent="1" source="a6zSYxtTKGB_8VzBoaJb-42" target="p2-zbKt5w9u9RG7VLdxa-11">
          <mxGeometry width="50" height="50" relative="1" as="geometry">
            <mxPoint x="320" y="440" as="sourcePoint" />
            <mxPoint x="370" y="390" as="targetPoint" />
          </mxGeometry>
        </mxCell>
        <mxCell id="p2-zbKt5w9u9RG7VLdxa-14" value="Effectivness" style="rounded=0;whiteSpace=wrap;html=1;" vertex="1" parent="1">
          <mxGeometry x="665" y="698" width="120" height="60" as="geometry" />
        </mxCell>
        <mxCell id="p2-zbKt5w9u9RG7VLdxa-15" value="" style="endArrow=none;html=1;rounded=0;entryX=0;entryY=1;entryDx=0;entryDy=0;" edge="1" parent="1" source="p2-zbKt5w9u9RG7VLdxa-14" target="a6zSYxtTKGB_8VzBoaJb-1">
          <mxGeometry width="50" height="50" relative="1" as="geometry">
            <mxPoint x="590" y="610" as="sourcePoint" />
            <mxPoint x="640" y="560" as="targetPoint" />
          </mxGeometry>
        </mxCell>
        <mxCell id="p2-zbKt5w9u9RG7VLdxa-19" value="" style="endArrow=none;html=1;rounded=0;entryX=0.75;entryY=1;entryDx=0;entryDy=0;" edge="1" parent="1" source="p2-zbKt5w9u9RG7VLdxa-20" target="ShOynKs_U-5MbjvXCMQn-30">
          <mxGeometry width="50" height="50" relative="1" as="geometry">
            <mxPoint x="750" y="650" as="sourcePoint" />
            <mxPoint x="800" y="620" as="targetPoint" />
          </mxGeometry>
        </mxCell>
        <mxCell id="p2-zbKt5w9u9RG7VLdxa-21" value="" style="endArrow=none;html=1;rounded=0;entryX=0.75;entryY=1;entryDx=0;entryDy=0;" edge="1" parent="1" target="p2-zbKt5w9u9RG7VLdxa-20">
          <mxGeometry width="50" height="50" relative="1" as="geometry">
            <mxPoint x="750" y="650" as="sourcePoint" />
            <mxPoint x="705" y="598" as="targetPoint" />
          </mxGeometry>
        </mxCell>
        <mxCell id="p2-zbKt5w9u9RG7VLdxa-20" value="effected by" style="rhombus;whiteSpace=wrap;html=1;" vertex="1" parent="1">
          <mxGeometry x="725" y="623" width="50" height="50" as="geometry" />
        </mxCell>
        <mxCell id="p2-zbKt5w9u9RG7VLdxa-22" value="" style="endArrow=none;html=1;rounded=0;exitX=0.5;exitY=0;exitDx=0;exitDy=0;entryX=0.5;entryY=1;entryDx=0;entryDy=0;" edge="1" parent="1" source="p2-zbKt5w9u9RG7VLdxa-14" target="p2-zbKt5w9u9RG7VLdxa-20">
          <mxGeometry width="50" height="50" relative="1" as="geometry">
            <mxPoint x="590" y="610" as="sourcePoint" />
            <mxPoint x="640" y="560" as="targetPoint" />
          </mxGeometry>
        </mxCell>
        <mxCell id="p2-zbKt5w9u9RG7VLdxa-23" value="id" style="ellipse;whiteSpace=wrap;html=1;direction=west;" vertex="1" parent="1">
          <mxGeometry x="615" y="787" width="80" height="50" as="geometry" />
        </mxCell>
        <mxCell id="p2-zbKt5w9u9RG7VLdxa-24" value="" style="endArrow=none;html=1;rounded=0;exitX=0.306;exitY=1.004;exitDx=0;exitDy=0;exitPerimeter=0;entryX=0;entryY=1;entryDx=0;entryDy=0;" edge="1" parent="1" source="p2-zbKt5w9u9RG7VLdxa-14" target="p2-zbKt5w9u9RG7VLdxa-23">
          <mxGeometry width="50" height="50" relative="1" as="geometry">
            <mxPoint x="590" y="610" as="sourcePoint" />
            <mxPoint x="640" y="560" as="targetPoint" />
          </mxGeometry>
        </mxCell>
        <mxCell id="p2-zbKt5w9u9RG7VLdxa-25" value="n" style="text;html=1;align=center;verticalAlign=middle;resizable=0;points=[];autosize=1;strokeColor=none;fillColor=none;" vertex="1" parent="1">
          <mxGeometry x="675" y="678" width="30" height="30" as="geometry" />
        </mxCell>
        <mxCell id="p2-zbKt5w9u9RG7VLdxa-26" value="n" style="text;html=1;align=center;verticalAlign=middle;resizable=0;points=[];autosize=1;strokeColor=none;fillColor=none;" vertex="1" parent="1">
          <mxGeometry x="715" y="678" width="30" height="30" as="geometry" />
        </mxCell>
      </root>
    </mxGraphModel>
  </diagram>
</mxfile>
